<?xml version="1.0" encoding="UTF-8"?>
<svg version="1.1" xmlns="http://www.w3.org/2000/svg" width="1238" height="799">
<path d="M0 0 C2.88220655 0.33158128 3.8769941 0.86459014 5.859375 3.046875 C10.0162023 8.99010742 13.92564266 15.02525346 17.6796875 21.23046875 C20.46443544 25.79690983 23.39052843 30.27060864 26.3125 34.75 C26.86993896 35.604729 27.42737793 36.45945801 28.00170898 37.34008789 C29.12473077 39.06121086 30.24802016 40.78215925 31.37158203 42.50292969 C33.83988702 46.28791071 36.29608184 50.08068075 38.75 53.875 C39.19947998 54.56988525 39.64895996 55.26477051 40.11206055 55.98071289 C44.78401502 63.20722807 49.43510107 70.44710788 54.08398438 77.68847656 C55.1807516 79.39663737 56.27778857 81.10462448 57.375 82.8125 C57.74488037 83.38830811 58.11476074 83.96411621 58.49584961 84.55737305 C60.49760253 87.67116333 62.5048698 90.78126313 64.51953125 93.88671875 C69.71808254 101.90042917 74.87834842 109.93687815 80 118 C85.51433428 126.68044135 91.07322527 135.33026952 96.67333984 143.95556641 C98.95259347 147.46798265 101.2259855 150.9841905 103.5 154.5 C106.18934274 158.65759131 108.87928097 162.81478257 111.57421875 166.96875 C115.70156158 173.33416448 119.81651675 179.70688278 123.8984375 186.1015625 C124.58139893 187.17140381 125.26436035 188.24124512 125.96801758 189.34350586 C127.35627945 191.51854115 128.74414228 193.69383119 130.1315918 195.86938477 C134.41193771 202.56576417 138.74661903 209.21874018 143.25805664 215.76220703 C146 219.78851861 146 219.78851861 146 222 C146.85207031 222.24878906 147.70414063 222.49757813 148.58203125 222.75390625 C151.58887283 223.85011478 154.11847797 225.15654346 156.84179688 226.81689453 C175.2144045 237.97169202 195.95549314 244.81168453 216.60742188 250.35595703 C219.74895655 251.20160688 222.87432757 252.09769953 226 253 C226.38218767 254.65614657 226.71395102 256.32457024 227 258 C226 259 226 259 222.75390625 259.2890625 C216.5597967 259.20362651 210.80977038 257.18614252 204.9375 255.375 C203.12560181 254.82477173 203.12560181 254.82477173 201.27709961 254.26342773 C192.64283272 251.60105505 184.25501451 248.68672523 176 245 C174.73542969 244.43949951 174.73542969 244.43949951 173.4453125 243.86767578 C167.61505103 241.27814963 161.80127571 238.65378449 156 236 C157.15076033 237.67559307 158.30161389 239.35112218 159.45288086 241.02636719 C160.45570849 242.48616496 161.45780628 243.94646433 162.45922852 245.40722656 C164.72264669 248.70533994 166.99521208 251.99326294 169.3125 255.25390625 C174.97923723 263.24358907 179.99742176 271.53771144 184.98828125 279.9609375 C188.18046771 285.33649303 191.49835528 290.62887981 194.87866211 295.88793945 C196.96068504 299.16582239 198.70598027 302.33361076 200 306 C200.66 306 201.32 306 202 306 C202.27005859 305.11497803 202.54011719 304.22995605 202.81835938 303.31811523 C203.92443959 300.212178 205.19008002 297.71242437 206.90625 294.91015625 C207.76742432 293.49754517 207.76742432 293.49754517 208.64599609 292.05639648 C209.25781738 291.06841064 209.86963867 290.0804248 210.5 289.0625 C211.1285791 288.03777588 211.7571582 287.01305176 212.40478516 285.95727539 C216.33061369 279.59218939 220.37944111 273.33106651 224.59179688 267.15283203 C227.27538179 263.18622738 229.68375384 259.12777874 232 254.9375 C235.13652623 249.30832793 238.61893352 244.11167697 242.5 238.96850586 C245.55892584 234.85745353 247.80038346 230.63130271 250 226 C249.31075439 226.01047363 248.62150879 226.02094727 247.91137695 226.03173828 C222.81287639 226.36294709 202.22169826 223.18391679 179.75 211.5 C178.48349609 210.84269897 178.48349609 210.84269897 177.19140625 210.17211914 C171.32093178 206.99830639 166.14890561 203.23663705 161 199 C161.33 197.68 161.66 196.36 162 195 C163.765625 194.34765625 163.765625 194.34765625 166 194 C167.796875 194.93359375 167.796875 194.93359375 169.75 196.4375 C189.40091962 210.3582503 213.08896221 218.22385995 237.0625 218.125 C238.00416016 218.12886719 238.94582031 218.13273438 239.91601562 218.13671875 C249.42402419 218.64563703 249.42402419 218.64563703 257.75 215.4375 C258.45083063 214.07088027 259.14541949 212.70086003 259.81689453 211.31958008 C262.3469208 206.14333276 265.16692727 201.19182477 268.125 196.25 C269.00381701 194.77676448 269.88146225 193.3028292 270.7578125 191.828125 C271.1408252 191.1877832 271.52383789 190.54744141 271.91845703 189.88769531 C273.0514962 187.98856535 273.0514962 187.98856535 273.95263672 185.82324219 C275 184 275 184 278 183 C284.45065145 188.52912981 286.57363581 195.89224564 288 204 C288.721875 203.46375 289.44375 202.9275 290.1875 202.375 C293 201 293 201 295.8125 201.8125 C296.8953125 202.4003125 296.8953125 202.4003125 298 203 C297.8125 205.375 297.8125 205.375 297 208 C294.44921875 209.1640625 294.44921875 209.1640625 292 210 C292.81404297 211.62808594 292.81404297 211.62808594 293.64453125 213.2890625 C297.95703125 221.9140625 297.95703125 221.9140625 299.00244141 224.01269531 C299.90736935 225.81546414 300.83337298 227.60761529 301.76171875 229.3984375 C303 232 303 232 303 234 C322.41909024 225.05375993 341.47413644 215.80321171 358 202 C358.89976563 201.29359375 359.79953125 200.5871875 360.7265625 199.859375 C366.47455643 195.30436094 371.36879039 190.66594841 376 185 C377.15435547 183.69289063 377.15435547 183.69289063 378.33203125 182.359375 C387.53979078 171.77964515 394.76626817 160.03841966 400 147 C400.41894531 145.98164063 400.83789062 144.96328125 401.26953125 143.9140625 C408.03083681 126.38777799 410.22279713 107.97759105 410.25 89.3125 C410.25233643 88.58233673 410.25467285 87.85217346 410.25708008 87.09988403 C410.27011318 76.28462964 409.57899033 65.88011539 407.65625 55.21484375 C406.92637128 51.09311978 406.88611041 47.18069696 407 43 C408.65 42.67 410.3 42.34 412 42 C423.58922806 59.3838421 419.99208472 99.14205906 416.34277344 118.96166992 C415.92650765 120.98309603 415.47248725 122.99104674 415 125 C414.85546387 125.65226562 414.71092773 126.30453125 414.56201172 126.9765625 C408.21826102 155.18974392 393.59288594 178.94903211 373 199 C372.51821289 199.50515137 372.03642578 200.01030273 371.54003906 200.53076172 C367.16955189 205.06556265 362.51018111 208.80539297 357.375 212.4375 C356.58230713 213.00243164 355.78961426 213.56736328 354.97290039 214.14941406 C340.4927526 224.38171993 324.80744832 234.09468032 308 240 C308 242.88157179 309.24559481 244.73785182 310.53515625 247.31323242 C311.36732666 248.98218819 311.36732666 248.98218819 312.21630859 250.68486023 C312.8315664 251.90846647 313.44696742 253.13200071 314.0625 254.35546875 C314.69381437 255.61690396 315.32483182 256.8784878 315.95556641 258.14021301 C317.28480125 260.79711455 318.61671857 263.45264804 319.95068359 266.10717773 C321.63794751 269.46494832 323.32008898 272.82525027 325.00042725 276.18649101 C333.86216521 293.91927752 333.86216521 293.91927752 343.1114502 311.45184326 C345.04979992 315.0641659 346.88866802 318.7220803 348.71289062 322.39306641 C349.05832664 323.08607062 349.40376266 323.77907484 349.75966644 324.49307919 C350.48251947 325.94337996 351.2049609 327.39388595 351.92700195 328.84459114 C353.28183933 331.56615107 354.63942269 334.28633568 355.99710846 337.00647545 C357.01088141 339.03769258 358.02421849 341.06912669 359.03747559 343.1006012 C361.66781067 348.37363507 364.30023772 353.64562417 366.9328537 358.91751957 C368.91707207 362.89118048 370.90053024 366.86521722 372.88232422 370.84008789 C374.82845129 374.74333385 376.77662283 378.64555346 378.72612 382.54711723 C379.45707507 384.01084492 380.18733844 385.47491829 380.91682434 386.93937874 C384.92124829 394.97720176 388.99464024 402.96726786 393.25765228 410.8715601 C396.14140782 416.22150691 398.86760757 421.64273582 401.5625 427.08984375 C404.39410921 432.80049893 407.24776767 438.50011592 410.09979248 444.20059204 C411.72592864 447.45116328 413.35119683 450.70216845 414.9765625 453.953125 C415.64485269 455.28971558 416.31314698 456.62630411 416.98144531 457.96289062 C418.32714844 460.65429688 419.67285156 463.34570312 421.01855469 466.03710938 C421.35026421 466.70052589 421.68197372 467.36394241 422.02373505 468.04746246 C422.68746491 469.37492726 423.3511867 470.7023961 424.01490021 472.02986908 C425.62461105 475.24937819 427.23445393 478.46882113 428.84460449 481.68811035 C431.40789144 486.81335545 433.97085274 491.93874619 436.52539062 497.06835938 C440.10535108 504.2546065 443.74268335 511.40442202 447.5 518.5 C451.68777917 526.45713926 455.77183849 534.4556466 459.76416016 542.51220703 C462.8057615 548.63506711 465.87150539 554.7459422 468.93066406 560.86004639 C474.84135781 572.67402211 474.84135781 572.67402211 477.36328125 577.76171875 C481.002801 585.09630325 484.76918356 592.34575053 488.63916016 599.56152344 C491.69678326 605.31223229 494.46635489 611.17270809 497.17382812 617.0949707 C499.0417451 621.13154687 501.08095724 624.88029915 503.5 628.625 C506.07241955 632.68525139 506.62009789 635.24591618 506 640 C499.43689145 641.78993869 499.43689145 641.78993869 495.60546875 639.68359375 C489.82506471 635.2452404 485.67767415 630.26334303 481.875 624.0625 C475.65491648 614.16630716 468.62915689 604.80234409 461.69140625 595.40234375 C460 593 460 593 458.58984375 590.50390625 C457.04514826 587.86795583 457.04514826 587.86795583 454.578125 585.58984375 C451.77851814 582.77751141 449.84971542 579.92593304 447.75 576.5625 C446.95585823 575.30200201 446.16158398 574.04158748 445.3671875 572.78125 C444.96983398 572.14574219 444.57248047 571.51023437 444.16308594 570.85546875 C442.42168136 568.07740939 440.64866494 565.320047 438.875 562.5625 C438.51881592 562.00747803 438.16263184 561.45245605 437.7956543 560.88061523 C434.73188583 556.11439218 431.63098787 551.37279257 428.52905273 546.63134766 C423.14265156 538.39694119 417.80315775 530.144915 412.63037109 521.7746582 C409.58945081 516.87999191 406.40767613 512.09070833 403.1875 507.3125 C398.77318141 500.76219784 394.56013425 494.11241929 390.4375 487.375 C386.18261085 480.42648135 381.77779752 473.64144393 377.10229492 466.96972656 C372.97229314 461.04587043 369.12447078 454.95809166 365.32202148 448.81982422 C362.29257916 443.95264347 359.09758707 439.24082446 355.79003906 434.55859375 C352.77100443 430.24333421 349.88023875 425.84620305 347 421.4375 C346.04855103 419.98138306 346.04855103 419.98138306 345.07788086 418.49584961 C337.74280116 407.18291015 330.85172619 395.61048136 324 384 C324 388.0897413 324.87315173 391.16387033 326.16796875 394.96484375 C326.39886703 395.65761917 326.62976532 396.35039459 326.86766052 397.06416321 C327.63439816 399.35753039 328.41043671 401.64761249 329.1875 403.9375 C329.73043633 405.54845868 330.27324015 407.15946203 330.81591797 408.77050781 C332.53158846 413.8512431 334.26454943 418.92599357 336 424 C336.27962585 424.81954163 336.55925171 425.63908325 336.84735107 426.48345947 C345.54157626 451.9565932 354.54698795 477.07563226 367 501 C367.85757794 502.72747739 368.71215905 504.45644878 369.5625 506.1875 C370.92803557 508.95611165 372.36363628 511.6373007 373.89453125 514.3203125 C374.22187256 514.89885986 374.54921387 515.47740723 374.88647461 516.07348633 C375.82726951 517.72853252 376.78431275 519.37431123 377.7421875 521.01953125 C379.13738219 524.32553605 379.2204594 525.66988935 378 529 C377.34 529.66 376.68 530.32 376 531 C372.61473093 530.90850624 371.19117206 530.16601784 368.625 527.9375 C367.75875 526.968125 366.8925 525.99875 366 525 C365.28263672 524.23429688 365.28263672 524.23429688 364.55078125 523.453125 C357.56167282 515.80402813 351.60787412 507.24184091 345.46191406 498.91650391 C339.41195823 490.72588436 333.23726314 482.73882664 326.58984375 475.0234375 C324.13461342 472.15715051 321.74704147 469.24774716 319.375 466.3125 C315.80651876 461.92491897 312.07308716 457.72709569 308.265625 453.546875 C304.3593288 449.15565927 300.69593317 444.56808761 297 440 C295.34120892 437.99321079 293.67209535 435.99572671 292 434 C293.56752605 443.54628844 295.7209447 452.95827928 297.88623047 462.38256836 C298.50542242 465.08617617 299.11405441 467.79203813 299.72265625 470.49804688 C300.11654203 472.21889787 300.51105028 473.93960653 300.90625 475.66015625 C301.08651733 476.46840347 301.26678467 477.2766507 301.45251465 478.10939026 C302.39277248 482.48027583 302.39277248 482.48027583 305 486 C305.54663086 487.78076172 305.54663086 487.78076172 305.96484375 489.9296875 C306.20328003 491.11461792 306.20328003 491.11461792 306.4465332 492.32348633 C306.60855225 493.16548584 306.77057129 494.00748535 306.9375 494.875 C308.25168671 501.48321542 309.69793672 507.98224955 311.58203125 514.45703125 C312.08562204 517.52093409 311.64768841 519.98186013 311 523 C309.35 523.33 307.7 523.66 306 524 C300.84308523 517.94564812 296.6149869 511.80365021 292.71484375 504.87890625 C290.65021988 501.41278371 288.27759079 498.34220466 285.75390625 495.203125 C279.95107993 487.9140514 275.36606557 480.2051922 271 472 C266.57462195 463.83658985 261.91547865 456.40631717 256.2109375 449.046875 C253.5325933 445.35587062 251.35741787 441.48232164 249.15576172 437.49438477 C242.98070857 426.45199002 235.36728497 416.28544937 227.58984375 406.33203125 C224.71823944 402.65447879 221.91954507 398.92377836 219.125 395.1875 C218.62234619 394.51589844 218.11969238 393.84429688 217.60180664 393.15234375 C216.57838241 391.78451516 215.55519011 390.416513 214.53222656 389.04833984 C212.52259902 386.36179187 210.50952455 383.67783886 208.49609375 380.99414062 C206.99437366 378.99250066 205.49328199 376.9903904 203.9921875 374.98828125 C202.02040993 372.35903068 200.04630848 369.73155025 198.0703125 367.10546875 C192.00153288 359.03527236 185.98783385 350.92651412 180.00488281 342.79248047 C175.37416672 336.49948899 170.69958977 330.24176948 166 324 C164.06148957 321.41742421 162.12455427 318.83366807 160.1875 316.25 C159.16408865 314.88539706 158.14065094 313.52081388 157.1171875 312.15625 C155.0390625 309.38541667 152.9609375 306.61458333 150.8828125 303.84375 C150.37419678 303.16562256 149.86558105 302.48749512 149.34155273 301.78881836 C148.3227311 300.43033529 147.30401354 299.07177417 146.28540039 297.71313477 C144.10540823 294.80564645 141.92410654 291.89920195 139.73828125 288.99609375 C135.7573157 283.70530959 131.81249122 278.39050653 127.89282227 273.05419922 C122.44755783 265.64131823 116.95436605 258.27815883 111.3203125 251.0078125 C107.49252752 246.045869 103.74897972 241.0216395 100 236 C99.00035626 234.66639955 98.00050175 233.33295687 97 232 C97.78715405 242.29514635 98.67170771 252.10234914 101.79296875 261.9921875 C103.46812211 267.36574985 104.74665698 272.84219609 106.0625 278.3125 C106.45538208 279.94372803 106.45538208 279.94372803 106.85620117 281.60791016 C108.30498306 287.73521316 109.56799874 293.84631747 110.5625 300.0625 C111.51003352 305.93929033 112.99850303 311.4469093 114.88745117 317.09277344 C117.35454201 324.6935436 119.04813517 332.4716203 120.81710815 340.25866699 C122.96432296 349.70635316 125.3034651 359.07760566 127.8125 368.4375 C130.01274808 376.66459182 131.67568521 384.55338076 132.53125 393.03125 C133.12798358 396.81056265 134.51409379 399.81049119 136.24609375 403.19140625 C137.29626523 405.71072955 136.96987716 407.49448399 136 410 C134.02 410.66 132.04 411.32 130 412 C126.7457985 409.16569547 125.4793247 407.31392226 125 403 C124.01 402.67 123.02 402.34 122 402 C120.58922328 399.85136934 119.34196144 397.75400907 118.125 395.5 C117.76768799 394.85780518 117.41037598 394.21561035 117.04223633 393.55395508 C115.58963014 390.93742061 114.16429819 388.30747968 112.75390625 385.66796875 C109.52485085 379.67115157 105.81041968 374.02431074 102.00854492 368.37768555 C99.18220717 364.10709566 96.93285484 359.85547018 94.93188477 355.14306641 C93.55016967 351.96551986 91.91007723 348.97983162 90.25 345.9375 C87.37751254 340.6308043 84.61282299 335.28372006 81.9375 329.875 C78.44869303 322.82764435 74.77876597 315.8962479 71 309 C69.9392127 316.40919132 70.09007624 323.49737324 70.59350586 330.92749023 C71.00117801 337.1638957 71.07027169 343.35806779 70.96264648 349.60595703 C70.92397982 352.70454585 71.01070261 355.03210784 72 358 C72.17822757 360.91184573 72.30581861 363.8040058 72.38671875 366.71875 C72.41224319 367.57303589 72.43776764 368.42732178 72.46406555 369.30749512 C72.51604183 371.11296737 72.56547259 372.91851443 72.61254883 374.72412109 C72.6872218 377.48969653 72.77785737 380.25446064 72.86914062 383.01953125 C72.91764924 384.7734106 72.9652073 386.52731655 73.01171875 388.28125 C73.04077805 389.10943237 73.06983734 389.93761475 73.09977722 390.79089355 C73.22871087 396.6569337 73.22871087 396.6569337 71 400 C68.25 400.625 68.25 400.625 65 400 C60.33439773 396.3333302 57.87099194 391.07098453 55.38671875 385.8203125 C53.86696076 382.72942442 52.17520779 379.7863092 50.4375 376.8125 C46.14134319 369.42601437 42.21999578 361.85049239 38.30053711 354.2590332 C33.18988502 344.30148991 33.18988502 344.30148991 27.52172852 334.65673828 C23.47587826 328.23040919 20.77499485 321.71078682 18.25 314.5625 C17.48773597 312.43759341 16.72225655 310.31383673 15.953125 308.19140625 C15.46054199 306.80223999 15.46054199 306.80223999 14.95800781 305.38500977 C14.01363249 302.79880425 14.01363249 302.79880425 12 300 C13.46406871 325.68023746 15.04035738 351.34779453 16.9375 377 C17.02107758 378.13075958 17.10465515 379.26151917 17.19076538 380.42654419 C17.36146134 382.73517385 17.53216144 385.0438032 17.7028656 387.35243225 C17.83061119 389.08063454 17.83061119 389.08063454 17.9609375 390.84375 C18.04638321 391.9991478 18.13182892 393.15454559 18.21986389 394.34495544 C19.20629092 407.72725987 20.1395958 421.11318318 21.0625 434.5 C21.14652069 435.71723755 21.23054138 436.9344751 21.31710815 438.18859863 C22.49683911 455.31255928 23.60978609 472.43986169 24.67550659 489.57125854 C25.83470747 508.14603911 27.20685901 526.70345651 28.64257812 545.25878906 C29.55851527 557.21374428 30.3014317 569.15502363 30.7800293 581.13574219 C31.01140987 586.7001705 31.38875882 592.25351299 31.87142944 597.80174255 C32.13905166 601.5406816 32.15530505 602.76704243 30 606 C26.14919146 605.44988449 24.56264997 603.84732069 22 601 C20.51123047 598.62841797 20.51123047 598.62841797 19.1171875 595.9921875 C18.59511719 595.01507812 18.07304688 594.03796875 17.53515625 593.03125 C16.98730469 591.9896875 16.43945312 590.948125 15.875 589.875 C14.70653954 587.68446338 13.53726247 585.49436216 12.3671875 583.3046875 C11.50625488 581.68771973 11.50625488 581.68771973 10.62792969 580.03808594 C8.46393257 575.99957662 6.2400604 571.9966612 4 568 C-0.41877498 560.08920048 -4.73954272 552.12694255 -9.04736328 544.15527344 C-12.6384882 537.51017112 -16.24964101 530.87647591 -19.875 524.25 C-24.53128394 515.73596414 -29.11658495 507.18502034 -33.6875 498.625 C-38.41461458 489.77298031 -43.20059819 480.963873 -48.1640625 472.2421875 C-49.79221863 469.36693305 -51.37413877 466.47328859 -52.9375 463.5625 C-55.10028396 459.55712076 -57.3913896 455.64445416 -59.72631836 451.73828125 C-64.34619301 443.99937922 -68.59371682 436.32048446 -71.80957031 427.87353516 C-74.43256949 421.08102081 -77.60337669 414.68600069 -81 408.25 C-81.57032959 407.16162842 -82.14065918 406.07325684 -82.72827148 404.9519043 C-88.86549643 393.28007379 -95.20009865 381.71794289 -101.56005859 370.16650391 C-111.79281653 351.56753943 -111.79281653 351.56753943 -115.8125 343.375 C-119.41506356 336.0349454 -123.25634279 328.82769002 -127.125 321.625 C-127.44712463 321.02521332 -127.76924927 320.42542664 -128.10113525 319.8074646 C-131.61184863 313.27435866 -135.13551266 306.74825484 -138.66015625 300.22265625 C-139.83615093 298.04438604 -141.01193568 295.86600249 -142.1875 293.6875 C-142.7556543 292.6346582 -143.32380859 291.58181641 -143.90917969 290.49707031 C-149.71179145 279.71984124 -155.37298013 268.86974022 -161 258 C-164.09419073 259.3308966 -165.71233505 260.56757687 -167.59375 263.3515625 C-168.29467773 264.37008301 -168.29467773 264.37008301 -169.00976562 265.40917969 C-169.50154297 266.14040039 -169.99332031 266.87162109 -170.5 267.625 C-171.56044248 269.16548089 -172.62300121 270.7045068 -173.6875 272.2421875 C-174.23148438 273.02948242 -174.77546875 273.81677734 -175.3359375 274.62792969 C-177.97842464 278.39471446 -180.73051715 282.07603785 -183.5 285.75 C-183.99177734 286.40436035 -184.48355469 287.0587207 -184.99023438 287.73291016 C-186.3194585 289.49436129 -187.65900045 291.24750993 -189 293 C-189.7321875 293.97453125 -190.464375 294.9490625 -191.21875 295.953125 C-191.8065625 296.62859375 -192.394375 297.3040625 -193 298 C-193.66 298 -194.32 298 -195 298 C-195.22558594 298.52335937 -195.45117188 299.04671875 -195.68359375 299.5859375 C-197.47179092 302.86518336 -199.74660768 305.70991837 -202.0625 308.625 C-202.55419678 309.24745605 -203.04589355 309.86991211 -203.55249023 310.51123047 C-207.12507228 314.99471986 -210.86910598 319.28013961 -214.74609375 323.50390625 C-220.83699781 330.24929221 -226.5545275 337.33170396 -232.09765625 344.53125 C-238.44402966 352.76720071 -244.87897623 360.93347564 -251.4921875 368.95703125 C-253.44248953 371.32351923 -255.38379378 373.69648868 -257.3203125 376.07421875 C-262.50352003 382.42324121 -267.67225621 388.74184763 -273.25 394.75 C-277.23782919 399.051112 -280.79298106 403.55308349 -284.3190918 408.22875977 C-288.2638925 413.42678794 -292.56916377 418.2168888 -297 423 C-306.63486671 433.53707154 -315.71285171 444.34133817 -324.06567383 455.92041016 C-325.33097018 457.64836276 -326.66003538 459.32928462 -328 461 C-328.66 461 -329.32 461 -330 461 C-330.35771484 461.82371094 -330.35771484 461.82371094 -330.72265625 462.6640625 C-332.31151282 465.56967787 -334.2830071 467.85855229 -336.4375 470.375 C-340.25968947 474.87573862 -343.94655183 479.45726705 -347.5625 484.125 C-353.80503345 492.12939775 -360.23553071 499.69898781 -368.0078125 506.26953125 C-374.28439623 511.49666592 -374.28439623 511.49666592 -379 518 C-379.66 518 -380.32 518 -381 518 C-381.21140625 518.52207031 -381.4228125 519.04414062 -381.640625 519.58203125 C-383.56269761 523.0008903 -386.15390879 525.77394784 -388.75 528.6875 C-406.69022257 548.85754074 -406.69022257 548.85754074 -422 571 C-424.17644303 573.85658147 -426.39562609 576.52584479 -429 579 C-435.75 577.25 -435.75 577.25 -438 575 C-438.52482566 569.6129028 -437.57543073 566.36622382 -434.96484375 561.68359375 C-434.49033531 560.81602196 -434.49033531 560.81602196 -434.00624084 559.93092346 C-432.99693818 558.09186135 -431.96823813 556.26461844 -430.9375 554.4375 C-429.94057562 552.64138228 -428.94791097 550.84296741 -427.95610046 549.04402161 C-427.29528783 547.8454487 -426.63286203 546.64776376 -425.96882629 545.45097351 C-422.98587518 540.04899796 -420.22589887 534.54924503 -417.50244141 529.01269531 C-415.83774456 525.67464541 -414.06270228 522.41769629 -412.2265625 519.171875 C-410.89588052 516.81563558 -409.60272545 514.44112793 -408.3125 512.0625 C-406.44449816 508.62499147 -404.55566798 505.20051824 -402.640625 501.7890625 C-397.50926243 492.63749399 -392.58325775 483.43968981 -388 474 C-391.53834714 477.02233818 -395.06745544 480.05268221 -398.5625 483.125 C-401.07869168 485.33516836 -403.61098046 487.52407966 -406.1640625 489.69140625 C-412.11399232 494.74758779 -417.98426954 499.85337749 -423.6875 505.1875 C-428.36028954 509.55750791 -433.18500784 513.64124717 -438.17578125 517.6484375 C-442.61032258 521.34082184 -446.79587424 525.2929072 -451.015625 529.2265625 C-455.60942351 533.50857767 -460.3543136 537.60355969 -465.140625 541.66796875 C-471.6605593 547.21430097 -478.05662275 552.84653401 -484.30200195 558.70092773 C-487.71227427 561.87593674 -491.22573067 564.84751157 -494.875 567.75 C-498.83466484 570.92460828 -502.11005878 574.2238857 -505.34375 578.12109375 C-507.01139831 580.01293063 -508.75232851 581.57353526 -510.6875 583.1875 C-516.66048119 588.25407548 -521.77739415 594.18210077 -527 600 C-527.66257812 600.73605469 -528.32515625 601.47210937 -529.0078125 602.23046875 C-533.19261599 606.9505378 -537.14427964 611.85007108 -541.08203125 616.77734375 C-543 619 -543 619 -545 620 C-546.0108662 621.66009858 -547.00918802 623.32785485 -548 625 C-552.85240477 631.18065684 -558.44080682 636.44787469 -564.375 641.5625 C-564.98190674 642.087229 -565.58881348 642.61195801 -566.21411133 643.15258789 C-568.78672656 645.32681631 -570.77506763 646.92502254 -574 648 C-574.99 647.34 -575.98 646.68 -577 646 C-577.50057246 642.94600234 -577.30787176 641.4862067 -575.64453125 638.859375 C-575.03996094 638.16328125 -574.43539062 637.4671875 -573.8125 636.75 C-571.31625038 633.73244524 -569.25035587 630.84667824 -567.4375 627.375 C-565.86324726 624.38184842 -564.22857953 621.98582129 -561.9375 619.5 C-559.1940889 616.44325515 -557.68864796 613.47222861 -556.14453125 609.6875 C-554.65725607 606.19519514 -552.96017568 602.82498798 -551.25 599.4375 C-550.93168213 598.80513428 -550.61336426 598.17276855 -550.28540039 597.52124023 C-549.52531063 596.01329681 -548.7629042 594.50652149 -548 593 C-547.34 593 -546.68 593 -546 593 C-545.75765625 592.18015625 -545.5153125 591.3603125 -545.265625 590.515625 C-543.77212377 586.36701047 -541.83917211 582.624016 -539.75 578.75 C-539.34958496 578.00000732 -538.94916992 577.25001465 -538.53662109 576.47729492 C-535.89428358 571.56229256 -533.12659902 566.74541863 -530.1953125 561.99609375 C-528.8709906 559.8539311 -528.8709906 559.8539311 -527.5 556.875 C-526.16634355 554.31882514 -524.79007983 552.42071234 -523 550.1875 C-520.87594098 547.44327776 -519.59889305 545.21677453 -518.6875 541.875 C-516.82662489 535.5865255 -512.95908059 530.44578145 -509.35498047 525.04980469 C-506.88882152 521.3190172 -504.50978483 517.5331202 -502.125 513.75 C-501.620896 512.95166748 -501.11679199 512.15333496 -500.59741211 511.33081055 C-493.23964442 499.65224147 -486.06210733 487.85957264 -479 476 C-482.87633724 478.98213218 -486.37172725 482.2342517 -489.8125 485.69897461 C-490.65010864 486.53636421 -490.65010864 486.53636421 -491.50463867 487.39067078 C-493.33880792 489.22553316 -495.16941357 491.06390747 -497 492.90234375 C-498.28103071 494.185242 -499.56228421 495.46791782 -500.84375 496.75038147 C-504.21087676 500.12131717 -507.57499217 503.4952425 -510.93847656 506.86981201 C-514.35301707 510.29456298 -517.7703682 513.71650677 -521.1875 517.13867188 C-526.71113107 522.67107753 -532.23306614 528.205169 -537.75268555 533.74157715 C-546.50266175 542.51748309 -546.50266175 542.51748309 -549.359375 545.2890625 C-554.52526751 550.336781 -559.20278277 555.56394912 -563.7109375 561.203125 C-566.88564228 565.08211582 -570.26766595 568.75342927 -573.65625 572.4453125 C-578.28713711 577.49297945 -582.73838223 582.6362397 -587 588 C-593.89462211 596.67473649 -601.10668661 604.87790023 -609.625 612 C-610.69621094 612.8971875 -610.69621094 612.8971875 -611.7890625 613.8125 C-614 615 -614 615 -616.7734375 614.6875 C-617.50820313 614.460625 -618.24296875 614.23375 -619 614 C-618.58539015 611.67818484 -618.14810394 610.19041935 -616.6875 608.3125 C-614.68602458 605.56973739 -613.49402521 602.77271314 -612.15234375 599.6640625 C-608.42302246 591.04237736 -604.3340059 582.60747897 -600.10253906 574.22436523 C-597.65272946 569.35313787 -595.30364281 564.44185827 -593 559.5 C-590.52153284 554.18318195 -587.97135234 548.91627755 -585.3125 543.6875 C-581.22010505 535.62823097 -577.47744423 527.41013223 -573.70599365 519.19735718 C-570.47996286 512.18344066 -567.17403268 505.25822038 -563.4375 498.5 C-551.95515767 477.43488953 -544.18309613 454.80271457 -537 432 C-542.51851729 435.83227925 -546.95955652 439.85236405 -551.1875 445.0625 C-556.20238368 451.13658988 -561.47092962 456.57665535 -567.375 461.8125 C-573.85466997 467.6944464 -579.17647887 473.84803351 -584.375 480.875 C-587.93003815 485.67731424 -591.70707171 490.11393557 -595.75 494.5078125 C-599.67753568 498.85810376 -603.31937573 503.44089921 -607 508 C-609.98696601 511.67750116 -612.98767263 515.34324438 -616 519 C-617.21236328 520.47726562 -617.21236328 520.47726562 -618.44921875 521.984375 C-625.67099922 530.69904061 -633.41240981 538.8842253 -641.19824219 547.09375 C-643.57183324 549.60499647 -645.92058978 552.13514293 -648.25 554.6875 C-648.89453125 555.39261719 -649.5390625 556.09773437 -650.203125 556.82421875 C-652.1114444 559.05883519 -652.1114444 559.05883519 -653.94140625 561.91796875 C-656.01438623 565.0215384 -658.26262876 567.79012638 -660.6875 570.625 C-664.92802662 575.6321045 -668.88699341 580.80012595 -672.79296875 586.07421875 C-675.63238807 589.83833392 -678.62192931 593.46373217 -681.625 597.09765625 C-684.24945529 600.30484421 -686.8187495 603.55090621 -689.375 606.8125 C-689.83704834 607.40144043 -690.29909668 607.99038086 -690.77514648 608.59716797 C-693.09890855 611.56259288 -695.41497205 614.53376664 -697.72265625 617.51171875 C-703.78649346 625.31540492 -710.04924343 632.91340399 -716.57421875 640.3371582 C-717.58772846 641.51918126 -718.57199863 642.72655106 -719.53515625 643.94995117 C-720.045625 644.58779541 -720.55609375 645.22563965 -721.08203125 645.8828125 C-721.53682861 646.46820801 -721.99162598 647.05360352 -722.46020508 647.65673828 C-724.47539106 649.41471406 -725.73290627 649.44154653 -728.375 649.4375 C-729.57125 649.293125 -730.7675 649.14875 -732 649 C-732.36386406 644.16480647 -731.75418247 641.96715234 -728.75 638.1875 C-728.01652344 637.23359375 -727.28304687 636.2796875 -726.52734375 635.296875 C-726.12112793 634.77287109 -725.71491211 634.24886719 -725.29638672 633.70898438 C-722.87592508 630.51816866 -720.60670538 627.21959765 -718.3125 623.9375 C-714.11359283 617.96200395 -709.85732463 612.03183875 -705.5625 606.125 C-700.50957375 599.17099522 -695.64121363 592.10719742 -690.82250977 584.98950195 C-686.74050564 578.99574373 -682.47294539 573.16770347 -678.04467773 567.42529297 C-674.0375088 562.19560986 -670.54205236 556.74142641 -667.3125 551 C-666.879375 550.34 -666.44625 549.68 -666 549 C-665.34 549 -664.68 549 -664 549 C-663.71785645 548.41226807 -663.43571289 547.82453613 -663.14501953 547.21899414 C-662.0991115 545.19207344 -660.97271571 543.37148016 -659.6796875 541.49609375 C-659.23125488 540.84398926 -658.78282227 540.19188477 -658.32080078 539.52001953 C-657.60512939 538.48917236 -657.60512939 538.48917236 -656.875 537.4375 C-656.13032471 536.36024658 -656.13032471 536.36024658 -655.37060547 535.26123047 C-651.33497898 529.44184404 -647.18942612 523.70948338 -643 518 C-636.33734434 508.88513308 -629.76912113 499.72358106 -623.4375 490.375 C-618.92822638 483.71967748 -614.24451587 477.24306426 -609.37866211 470.8449707 C-604.98430587 465.04308687 -600.8687658 459.07351571 -596.7734375 453.05859375 C-589.33877879 442.14405043 -581.60970196 431.43352031 -573.86254883 420.73974609 C-569.63267076 414.89447854 -565.46038645 409.01043657 -561.30639648 403.11108398 C-555.52387347 394.8990418 -549.69732452 386.71938717 -543.8046875 378.5859375 C-538.23886255 370.90319969 -532.72814206 363.1981521 -527.35546875 355.37890625 C-524.03924812 350.58912895 -520.59763261 345.88871105 -517.16821289 341.1796875 C-514.12022794 336.98132687 -511.12741319 332.7529264 -508.1953125 328.47265625 C-507.56778076 327.56008057 -506.94024902 326.64750488 -506.29370117 325.70727539 C-505.07804038 323.9342302 -503.86957363 322.15622592 -502.66918945 320.37280273 C-502.11706787 319.56915283 -501.56494629 318.76550293 -500.99609375 317.9375 C-500.51325928 317.22464844 -500.0304248 316.51179688 -499.53295898 315.77734375 C-497.84779968 313.82353586 -496.36411088 312.98321541 -494 312 C-488.94390667 315.75965914 -485.27992584 320.19496717 -481.35546875 325.10546875 C-479.14657998 327.81987435 -476.86036919 330.41718764 -474.5 333 C-470.58108748 337.29991791 -466.90829131 341.75919547 -463.25 346.28125 C-461.06498431 348.92147729 -458.80828609 351.4672972 -456.5 354 C-452.67829137 358.19729034 -449.08525811 362.53710231 -445.515625 366.94921875 C-442.57075346 370.52056141 -439.54291873 374.0122255 -436.5 377.5 C-432.67681607 381.88210961 -428.90845656 386.29059652 -425.25 390.8125 C-421.73085647 395.16005506 -418.04172384 399.30951333 -414.2734375 403.44140625 C-411.0406763 407.07965124 -407.99186896 410.85779763 -404.9453125 414.65234375 C-403.10675749 416.96072797 -403.10675749 416.96072797 -401.2421875 418.69140625 C-400 420 -400 420 -400 422 C-396.50088985 418.78049911 -393.94675832 415.15165396 -391.375 411.1875 C-390.4897114 409.84106162 -389.60429095 408.49470992 -388.71875 407.1484375 C-388.26886719 406.46104492 -387.81898438 405.77365234 -387.35546875 405.06542969 C-385.21384423 401.80207532 -383.04365721 398.55792366 -380.875 395.3125 C-380.03891346 394.05869312 -379.20297354 392.80478846 -378.3671875 391.55078125 C-374.52636719 385.78955078 -370.68554688 380.02832031 -366.84472656 374.26708984 C-366.44479492 373.66719238 -366.04486328 373.06729492 -365.6328125 372.44921875 C-363.9453125 369.91796875 -362.2578125 367.38671875 -360.5703125 364.85546875 C-360.14524414 364.21786621 -359.72017578 363.58026367 -359.28222656 362.92333984 C-358.01888021 361.02832031 -356.75553385 359.13330078 -355.4921875 357.23828125 C-354.9102211 356.36533165 -354.9102211 356.36533165 -354.3164978 355.4747467 C-353.48450724 354.22676086 -352.65251668 352.97877502 -351.82052612 351.73078918 C-351.42584137 351.13876205 -351.03115662 350.54673492 -350.62451172 349.93676758 C-348.25488281 346.38232422 -345.88525391 342.82788086 -343.515625 339.2734375 C-343.09339661 338.64009491 -342.67116821 338.00675232 -342.23614502 337.35421753 C-335.25118001 326.87677002 -328.26621501 316.39932251 -321.28125 305.921875 C-320.717547 305.0763205 -320.15384399 304.23076599 -319.57305908 303.35958862 C-319.02816833 302.5422525 -318.48327759 301.72491638 -317.921875 300.8828125 C-317.415495 300.12324249 -316.90911499 299.36367249 -316.38739014 298.58108521 C-315.89958069 297.84937103 -315.41177124 297.11765686 -314.90917969 296.36376953 C-314.43317825 295.64923111 -313.95717682 294.93469269 -313.4667511 294.19850159 C-312.44283723 292.66376522 -311.41677654 291.13045991 -310.38908386 289.59825134 C-309.86228531 288.8118074 -309.33548676 288.02536346 -308.79272461 287.21508789 C-308.31951279 286.51009659 -307.84630096 285.80510529 -307.35874939 285.07875061 C-305.5262197 282.27516354 -303.82384511 279.40168655 -302.11914062 276.51928711 C-298.13099512 269.7837028 -293.98445852 263.47812937 -289 257.4375 C-285.53034102 253.22535526 -283.24482643 249.71136512 -281.91015625 244.40234375 C-280.59608063 240.93386088 -278.51993258 238.05711407 -276.375 235.0625 C-275.78996704 234.23878906 -275.78996704 234.23878906 -275.19311523 233.3984375 C-272.57500829 229.83777055 -269.72726894 226.60459339 -266.71484375 223.37109375 C-261.53498498 217.67636951 -257.37003586 211.44187537 -253.1875 205 C-252.39781842 203.79770253 -251.60727977 202.59596759 -250.81591797 201.39477539 C-249.2524784 199.01976244 -247.69300887 196.64222982 -246.13720703 194.26220703 C-243.32528747 189.97012694 -240.47823119 185.70217259 -237.625 181.4375 C-236.68203063 180.02361156 -235.7393185 178.60955152 -234.796875 177.1953125 C-234.33990234 176.50985352 -233.88292969 175.82439453 -233.41210938 175.11816406 C-232.71311523 174.06967285 -232.71311523 174.06967285 -232 173 C-230.4703776 170.70556641 -228.94075521 168.41113281 -227.41113281 166.11669922 C-226.90420898 165.35631348 -226.39728516 164.59592773 -225.875 163.8125 C-222.9375 159.40625 -222.9375 159.40625 -220 155 C-219.55914063 154.33871094 -219.11828125 153.67742187 -218.6640625 152.99609375 C-218.23867188 152.35800781 -217.81328125 151.71992188 -217.375 151.0625 C-216.95927734 150.43891602 -216.54355469 149.81533203 -216.11523438 149.17285156 C-213.31640625 144.97460937 -210.51757812 140.77636719 -207.71875 136.578125 C-207.3357373 136.00352539 -206.95272461 135.42892578 -206.55810547 134.83691406 C-205.76576234 133.64856287 -204.97311634 132.46041357 -204.18017578 131.27246094 C-201.45379235 127.18656584 -198.7366109 123.09468091 -196.0234375 119 C-194.59896314 116.85416348 -193.17448396 114.70833015 -191.75 112.5625 C-191.07630371 111.54357666 -190.40260742 110.52465332 -189.70849609 109.47485352 C-188.41735509 107.53175496 -187.11707679 105.59468916 -185.80664062 103.66455078 C-184.65756035 101.96981266 -183.52872493 100.26103484 -182.42773438 98.53466797 C-179.92357442 94.80744976 -178.7309759 93.25840986 -174.38671875 91.72265625 C-171 92 -171 92 -168.76953125 93.74609375 C-168.12371094 94.63425781 -167.47789062 95.52242188 -166.8125 96.4375 C-166.04808594 97.4584375 -165.28367187 98.479375 -164.49609375 99.53125 C-164.09245605 100.09328125 -163.68881836 100.6553125 -163.27294922 101.234375 C-161.96979501 103.04189538 -160.63336106 104.81962098 -159.28515625 106.59375 C-156.7366699 109.95353272 -154.21523901 113.33265825 -151.69921875 116.71679688 C-148.60039469 120.88061909 -145.48791582 125.03420774 -142.375 129.1875 C-141.7344165 130.04239014 -141.09383301 130.89728027 -140.43383789 131.77807617 C-136.14369521 137.49587595 -131.80483156 143.17207345 -127.43359375 148.828125 C-124.22284371 153.0129228 -121.06643114 157.23724976 -117.90844727 161.46191406 C-111.00162421 170.68869576 -103.99536696 179.84029109 -97 189 C-93.08192539 182.48490869 -89.40832775 175.94864081 -86.0625 169.125 C-83.23879634 163.36835849 -80.22104064 157.80688511 -76.98925781 152.26757812 C-74.5952758 148.12851533 -72.41601854 143.91811734 -70.3125 139.625 C-66.97313569 132.82715815 -63.42902137 126.15427095 -59.8125 119.5 C-58.99060181 117.9850293 -58.99060181 117.9850293 -58.15209961 116.43945312 C-55.25188155 111.10483123 -52.32821304 105.78420268 -49.37890625 100.4765625 C-48.79197998 99.41244141 -48.20505371 98.34832031 -47.6003418 97.25195312 C-46.48356926 95.22795105 -45.3592104 93.20810858 -44.22583008 91.19335938 C-41.334387 85.93735231 -39.28068035 80.99708928 -37.70703125 75.21484375 C-36.69402124 72.04149196 -35.0216322 69.61109499 -33.0625 66.9375 C-30.12022315 62.75268941 -27.79051461 58.81774023 -25.984375 54.03515625 C-25 52 -25 52 -23.05859375 49.64453125 C-20.79153998 46.73220601 -19.64553534 44.05966763 -18.3125 40.625 C-15.8312821 34.47368149 -12.69960812 28.97968103 -9.19677734 23.35961914 C-6.17309767 18.45051759 -3.84253145 13.47605501 -2 8 C-1.34 8 -0.68 8 0 8 C-0.37125 7.236875 -0.7425 6.47375 -1.125 5.6875 C-1.41375 4.800625 -1.7025 3.91375 -2 3 C-1.34 2.01 -0.68 1.02 0 0 Z " fill="#D3D3D3" transform="translate(732,150)"/>
<path d="M0 0 C0.99 0.33 1.98 0.66 3 1 C6.05701157 7.36877411 6.85157602 15.07383202 8.171875 21.94921875 C9.50813607 28.69534274 11.27706107 35.3443831 13 42 C13.64324219 41.75765625 14.28648437 41.5153125 14.94921875 41.265625 C24.80476465 37.61021568 34.77020401 34.42740922 45 32 C46.41712602 31.64767585 47.83379309 31.29350064 49.25 30.9375 C51.83333333 30.29166667 54.41666667 29.64583333 57 29 C57 30.32 57 31.64 57 33 C56.01 33.66 55.02 34.32 54 35 C54 35.66 54 36.32 54 37 C52.390625 38.515625 52.390625 38.515625 50.25 40.25 C47.65161925 42.44862986 45.90658257 44.14012615 44 47 C41.6782601 50.48260984 38.99466664 52.81201511 35.8046875 55.484375 C33.91675177 57.02542772 33.91675177 57.02542772 32 59 C34.95874716 59.84154078 37.66699242 60.15584216 40.73828125 60.24609375 C41.64126953 60.27896484 42.54425781 60.31183594 43.47460938 60.34570312 C45.35470704 60.4065184 47.2349207 60.46385488 49.11523438 60.51757812 C54.4163913 60.71726634 58.97201094 61.28701614 64 63 C63.703125 64.87890625 63.703125 64.87890625 63 67 C57.34816424 70.36936362 51.21831044 72.50109619 45.05078125 74.75390625 C41.99316643 75.90696748 41.99316643 75.90696748 39.375 77.609375 C35.90199145 79.6429129 32.97715129 79.66295328 29 80 C32.52981236 84.14752953 36.11733851 88.1780051 40 92 C43.30792471 95.25673825 46.37509572 98.65234821 49.390625 102.1796875 C50.84014248 103.81919028 52.34295681 105.316496 53.9375 106.8125 C56 109 56 109 56 112 C52.4072811 111.36843741 49.15952852 110.4101014 45.75390625 109.109375 C44.75037109 108.72910156 43.74683594 108.34882813 42.71289062 107.95703125 C41.67326172 107.55871094 40.63363281 107.16039062 39.5625 106.75 C30.74328886 103.38976176 21.89109894 100.17539248 13 97 C11.68 111.19 10.36 125.38 9 140 C7.68 140 6.36 140 5 140 C4.78375977 139.44779785 4.56751953 138.8955957 4.34472656 138.32666016 C1.29411703 130.61270843 -1.97021461 122.99338378 -5.25 115.375 C-5.81000966 114.07166349 -6.36990625 112.76827838 -6.9296875 111.46484375 C-8.28515804 108.30933579 -9.64214765 105.15448389 -11 102 C-16.14377842 102.63139918 -20.51825418 104.20785768 -25.28515625 106.125 C-26.4532206 106.58543701 -26.4532206 106.58543701 -27.6448822 107.05517578 C-30.11965983 108.03123615 -32.59130919 109.01489732 -35.0625 110 C-37.53748381 110.98450266 -40.01311897 111.96720282 -42.49082947 112.94482422 C-44.02841675 113.55166833 -45.56444198 114.16248977 -47.09864807 114.77783203 C-50.71608404 116.20718891 -54.13144783 117.40783109 -58 118 C-57.57847501 113.17002613 -55.26837438 110.68715702 -52 107.375 C-50.99236521 106.31741071 -49.9871975 105.25746598 -48.984375 104.1953125 C-48.48099609 103.66325195 -47.97761719 103.13119141 -47.45898438 102.58300781 C-44.5042587 99.37711068 -41.81559396 95.95215178 -39.08203125 92.55859375 C-36.14910952 88.95434659 -33.08426934 85.47448504 -30 82 C-37.45479699 81.08902684 -44.85824422 80.68386058 -52.359375 80.39453125 C-57.30802144 80.18533191 -62.11138116 79.80360858 -67 79 C-66 76 -66 76 -64.07324219 74.91259766 C-63.23954102 74.58308105 -62.40583984 74.25356445 -61.546875 73.9140625 C-60.62293945 73.54273193 -59.69900391 73.17140137 -58.74707031 72.78881836 C-57.26352051 72.21272827 -57.26352051 72.21272827 -55.75 71.625 C-54.75323242 71.22869385 -53.75646484 70.8323877 -52.72949219 70.42407227 C-49.82371363 69.2720814 -46.91241785 68.13507762 -44 67 C-42.57257053 66.43446662 -41.14543808 65.86818234 -39.71875 65.30078125 C-31.32020057 62 -31.32020057 62 -29 62 C-31.70250464 57.11805613 -35.11949686 52.86895709 -38.5625 48.5 C-39.82059075 46.89344703 -41.07840123 45.28667453 -42.3359375 43.6796875 C-42.9556543 42.88916992 -43.57537109 42.09865234 -44.21386719 41.28417969 C-46.7216445 38.07713151 -49.20774749 34.85374091 -51.6875 31.625 C-52.83798828 30.12839844 -52.83798828 30.12839844 -54.01171875 28.6015625 C-54.66785156 27.74304688 -55.32398438 26.88453125 -56 26 C-56.87591797 24.92878906 -56.87591797 24.92878906 -57.76953125 23.8359375 C-59 22 -59 22 -59 19 C-53.05317921 20.87575562 -47.35976786 23.03997195 -41.6875 25.625 C-40.9342041 25.96402344 -40.1809082 26.30304688 -39.40478516 26.65234375 C-37.79197297 27.37868701 -36.18001485 28.10692917 -34.56884766 28.83691406 C-31.84370411 30.07076541 -29.11555862 31.29778407 -26.38671875 32.5234375 C-21.58941529 34.67846139 -16.79405791 36.83776664 -12 39 C-11.76410156 37.824375 -11.52820313 36.64875 -11.28515625 35.4375 C-9.89468269 29.18465679 -7.97208709 23.09395816 -6.05883789 16.98583984 C-5.43055444 14.9778015 -4.80967465 12.96757254 -4.18945312 10.95703125 C-3.79209995 9.67955265 -3.3943292 8.40220384 -2.99609375 7.125 C-2.63700928 5.97257813 -2.2779248 4.82015625 -1.90795898 3.6328125 C-1 1 -1 1 0 0 Z " fill="#CFCFCF" transform="translate(959,144)"/>
<path d="M0 0 C1.21856689 -0.01861084 2.43713379 -0.03722168 3.69262695 -0.05639648 C15.93146333 0.02853245 27.94335416 2.65970581 37.18359375 11.09375 C41.66399422 15.82127088 43.24804429 20.24861389 43.53515625 26.69140625 C43.25941647 33.03342121 40.93720362 38.02543439 36.4375 42.5 C32.58350244 44.8860418 28.62403857 46.77254477 24.4375 48.5 C27.03816536 50.23377691 29.41806879 51.41291345 32.25 52.6875 C38.02131211 55.5436676 41.77281549 59.03860428 44.5703125 64.85546875 C46.52230084 70.80815391 46.51186523 77.95779936 44 83.75 C38.09258504 93.58206435 29.12540936 97.49241198 18.4375 100.5 C2.11211667 104.31458278 -19.05396336 103.54459356 -33.5625 94.6875 C-39.87754344 90.04235632 -44.72714557 84.6071593 -46.3125 76.8125 C-46.96260331 70.0739291 -45.82771275 64.60163487 -41.5625 59.25 C-38.10925888 55.60813646 -34.354469 53.53183716 -29.796875 51.5078125 C-27.35463143 50.47953232 -27.35463143 50.47953232 -24.5625 48.5 C-25.13097656 48.28085937 -25.69945313 48.06171875 -26.28515625 47.8359375 C-33.26222556 44.97056346 -38.57520353 41.83352957 -42.5 35.25 C-44.41579718 28.48836289 -44.48622661 22.84286208 -41.6875 16.3125 C-37.44971992 8.79309634 -30.69215635 4.96249857 -22.75 2.0625 C-15.24258117 0.15257296 -7.71936541 0.07757911 0 0 Z M-15.5625 20.5 C-18.03955276 24.21557914 -18.21504367 27.19321177 -17.5625 31.5 C-15.10732875 36.50477216 -12.64778439 38.40428303 -7.5625 40.5 C-4.11192587 40.97059665 -4.11192587 40.97059665 -0.5625 40.875 C0.613125 40.88273437 1.78875 40.89046875 3 40.8984375 C7.70097316 40.35355197 10.9665551 38.57339222 14.75 35.8125 C17.15008578 32.52349356 17.62281205 29.53657994 17.4375 25.5 C16.01262594 21.58159634 13.57328362 19.17261085 9.85546875 17.23046875 C1.2229268 14.62257643 -8.14728331 15.4111258 -15.5625 20.5 Z M-17.5625 63.75 C-18.9082384 67.4507806 -19.46235315 70.66836722 -18.5625 74.5 C-15.84032821 79.14583986 -12.75331944 81.94863612 -7.5625 83.5 C-3.95492693 83.85343161 -3.95492693 83.85343161 -0.125 83.8125 C1.15246094 83.82925781 2.42992188 83.84601563 3.74609375 83.86328125 C9.18829404 83.32769963 12.35530316 81.51161879 16.3125 77.8125 C18.40643252 74.54842872 19.24697368 72.43156726 18.9921875 68.52734375 C17.94581425 64.7029232 15.48825747 61.94854721 12.4375 59.5 C3.26397295 54.72212133 -10.59019186 55.90615334 -17.5625 63.75 Z " fill="#FFFFFF" transform="translate(71.5625,315.5)"/>
<path d="M0 0 C26.4 0 52.8 0 80 0 C80 5.94 80 11.88 80 18 C62.18 18.33 44.36 18.66 26 19 C26 26.59 26 34.18 26 42 C27.65 40.68 29.3 39.36 31 38 C36.77106232 34.86957136 41.68006267 34.48698867 48.1875 34.5625 C49.58415894 34.5771228 49.58415894 34.5771228 51.0090332 34.59204102 C62.44785874 34.88590617 70.67512357 37.37198832 78.9296875 45.61328125 C86.14899087 53.93591212 85.91948646 63.29338308 85.22314453 73.88476562 C84.49976896 80.74179625 81.17306226 85.75956701 76.1796875 90.3671875 C65.05911657 98.69765103 53.68386672 100.35166531 40.1875 100.3125 C38.53911133 100.33666992 38.53911133 100.33666992 36.85742188 100.36132812 C23.71404696 100.36907319 10.69785944 97.42847445 1 88 C-2.50154226 83.3743831 -4.12124889 79.76299528 -5 74 C-0.60451509 73.85463187 3.79035087 73.76590052 8.1875 73.6875 C9.43337891 73.64560547 10.67925781 73.60371094 11.96289062 73.56054688 C21.29545801 73.43544544 21.29545801 73.43544544 24.98828125 76.39453125 C25.98408203 77.68423828 25.98408203 77.68423828 27 79 C31.35974789 80.96070184 35.24774599 81.29686759 40 81.3125 C41.7634375 81.33763672 41.7634375 81.33763672 43.5625 81.36328125 C48.05486135 80.88852034 51.34019307 79.37363332 54.8125 76.5 C58.02081249 72.44739475 57.43738328 66.88150984 57 62 C55.39875543 58.23707527 53.45444189 56.15902618 50 54 C46.4437153 52.81457177 43.49943946 52.79481402 39.75 52.75 C38.46609375 52.72421875 37.1821875 52.6984375 35.859375 52.671875 C32.00351789 52.77068837 32.00351789 52.77068837 28.85546875 54.50390625 C23.46690022 57.07548054 17.39040219 56.31149792 11.5625 56.1875 C10.35400391 56.17396484 9.14550781 56.16042969 7.90039062 56.14648438 C4.93312918 56.11129946 1.96680063 56.06206696 -1 56 C-1.02508834 50.59635744 -1.04303972 45.19275024 -1.05493164 39.7890625 C-1.0598995 37.95832731 -1.06667607 36.12759595 -1.07543945 34.296875 C-1.08784213 31.63540692 -1.09330366 28.97399213 -1.09765625 26.3125 C-1.10281754 25.52012939 -1.10797882 24.72775879 -1.11329651 23.91137695 C-1.11405531 15.87823156 -0.5048134 8.07701433 0 0 Z " fill="#FFFFFF" transform="translate(137,317)"/>
<path d="M0 0 C6.59223875 4.88586782 12.58002237 10.93753615 14.0625 19.25 C15.57846129 36.00137227 9.88836027 49.21709546 -0.74658203 62.0090332 C-2.62222232 64.20791082 -4.52340292 66.38289026 -6.4375 68.54833984 C-8.51091192 70.90050148 -10.55512133 73.27712938 -12.59692383 75.65673828 C-13.57067135 76.79150653 -14.54682042 77.92422153 -15.52612305 79.05419922 C-15.98543213 79.58674316 -16.44474121 80.11928711 -16.91796875 80.66796875 C-17.40442871 81.21453125 -17.89088867 81.76109375 -18.39208984 82.32421875 C-20.04542582 84.29603542 -20.04542582 84.29603542 -21.51806641 86.87890625 C-24.35651788 91.26991527 -26.23732138 93.86685951 -31.48120117 95.04858398 C-35.64777364 95.35513414 -39.77397429 95.1253595 -43.9375 94.875 C-45.39437789 94.82476283 -46.85142293 94.77914873 -48.30859375 94.73828125 C-51.8550733 94.62883154 -55.39520579 94.45676107 -58.9375 94.25 C-57.22627436 90.61598423 -55.13816113 88.12362897 -52.375 85.1875 C-48.92287429 81.47521409 -45.61824816 77.70183862 -42.4375 73.75 C-38.53559025 68.91246358 -34.42341413 64.31531798 -30.19921875 59.7578125 C-28.00712544 57.32720126 -25.95514586 54.82630752 -23.9375 52.25 C-24.48277344 52.45496094 -25.02804687 52.65992188 -25.58984375 52.87109375 C-36.69944212 56.84016394 -47.56313216 57.3412096 -58.84765625 53.17578125 C-66.25135864 49.63585115 -72.9601908 45.26037952 -75.9375 37.25 C-78.18931696 28.37041249 -78.89467537 20.20300662 -74.7421875 11.84375 C-68.8744264 2.22446951 -60.36912596 -2.13849915 -49.9375 -5.75 C-34.14306159 -9.46692462 -14.02772329 -8.52848293 0 0 Z M-47.8125 16.8125 C-50.44225237 20.25601939 -50.71011864 23.52768648 -50.4921875 27.77734375 C-49.5603165 31.93138841 -47.28502045 34.6939757 -43.9375 37.25 C-37.74395266 40.44354785 -30.69440292 39.94503667 -23.9375 39.25 C-19.27002752 37.64834891 -16.73168886 35.39164648 -13.9375 31.375 C-12.31739685 26.31217765 -12.1341128 22.88890988 -14.5 18.0625 C-18.58647856 13.34733243 -21.3551424 11.50090592 -27.515625 10.90234375 C-35.86443847 10.71408619 -41.39334649 11.09108056 -47.8125 16.8125 Z " fill="#FFFFFF" transform="translate(416.9375,322.75)"/>
<path d="M0 0 C0.69112885 -0.0140387 1.38225769 -0.02807739 2.09432983 -0.0425415 C9.23265326 -0.13634286 16.36227696 0.23771816 23.48046875 0.7421875 C21.34568353 4.02622982 19.28072061 7.17675022 16.5625 10.00390625 C16.03487061 10.55989502 15.50724121 11.11588379 14.96362305 11.6887207 C14.41230713 12.26323975 13.86099121 12.83775879 13.29296875 13.4296875 C8.48553574 18.51725668 3.93754128 23.72192475 -0.44140625 29.1875 C-3.66953356 33.15591215 -7.08514713 36.95219958 -10.51953125 40.7421875 C-9.400625 40.2575 -8.28171875 39.7728125 -7.12890625 39.2734375 C-2.30996619 37.47640093 2.12213438 37.20345829 7.23046875 37.2421875 C8.54772949 37.25076782 8.54772949 37.25076782 9.89160156 37.25952148 C20.14233015 37.53985909 28.36918713 40.72338667 35.859375 47.83984375 C42.60346778 55.753996 43.22274088 64.70537739 42.48046875 74.7421875 C40.8233531 82.47891214 36.7371847 88.00132631 30.48046875 92.7421875 C15.4523228 101.94309318 -3.64047494 103.53225384 -20.82421875 100.01953125 C-31.63058586 96.8793281 -40.64135886 90.98208926 -46.4375 81.15625 C-50.75959063 71.51346295 -49.91964868 61.51214518 -46.51953125 51.7421875 C-42.18582973 42.38625244 -36.29226339 34.49616587 -29.51953125 26.7421875 C-28.05067391 25.0308133 -26.58598318 23.31603878 -25.12475586 21.59814453 C-24.09315085 20.39887718 -23.04818506 19.21097913 -21.99047852 18.03466797 C-19.46992488 15.20535532 -17.32734893 12.57827196 -15.62109375 9.18359375 C-11.68659707 2.36647604 -7.77195046 0.10188586 0 0 Z M-20.51953125 60.9921875 C-22.31822344 65.93859101 -22.38542335 70.69139041 -20.33203125 75.5546875 C-17.47581023 79.0018508 -14.78577441 81.32010645 -10.51953125 82.7421875 C0.89248628 83.75177859 0.89248628 83.75177859 11.02734375 79.2265625 C14.34506206 75.83749541 15.35674643 72.89692919 15.85546875 68.2421875 C15.35674643 63.58744581 14.34506206 60.64687959 11.02734375 57.2578125 C5.55620128 53.02362398 -0.22027138 53.01960374 -6.94140625 53.25390625 C-13.07778643 54.09129437 -16.48908118 56.45793118 -20.51953125 60.9921875 Z " fill="#FFFFFF" transform="translate(283.51953125,316.2578125)"/>
<path d="M0 0 C4.08104822 0.3926398 6.04146516 1.54328851 8.890625 4.4296875 C9.94817993 5.49074707 9.94817993 5.49074707 11.02709961 6.57324219 C12.1274353 7.7126123 12.1274353 7.7126123 13.25 8.875 C14.00998291 9.65004883 14.76996582 10.42509766 15.55297852 11.22363281 C21.06718619 16.90146507 26.1888441 22.71132981 31 29 C32.20849609 30.51787109 32.20849609 30.51787109 33.44140625 32.06640625 C51.84452101 55.28812457 66.21227911 82.17658331 74.33691406 110.68945312 C74.97744926 112.92142114 75.65440624 115.13964471 76.3359375 117.359375 C89.4312385 161.47579306 89.19437203 219.03641166 75 263 C74.34 263.99 73.68 264.98 73 266 C70.375 266.1875 70.375 266.1875 68 266 C67.78950442 260.16626522 68.24773122 255.18550953 69.75 249.5 C84.58534985 186.75939387 77.60962329 115.89055384 43.53051758 60.48388672 C41.08357233 56.61264681 38.56179454 52.7959947 36 49 C35.57219238 48.35981934 35.14438477 47.71963867 34.70361328 47.06005859 C27.20916741 35.92095162 18.68986323 25.48216546 9.05859375 16.1171875 C8.41245117 15.48876953 7.76630859 14.86035156 7.10058594 14.21289062 C5.85209 13.01346778 4.59142485 11.82654861 3.31738281 10.65429688 C-0.89901279 6.63753666 -0.89901279 6.63753666 -1.44921875 3.1640625 C-1 1 -1 1 0 0 Z " fill="#BFBFBF" transform="translate(1099,52)"/>
<path d="M0 0 C3.38901013 1.44557777 5.27382172 4.19384422 7.51953125 7.00390625 C8.50214924 8.19959275 9.48522098 9.39490652 10.46875 10.58984375 C10.94103027 11.16959961 11.41331055 11.74935547 11.89990234 12.34667969 C14.03644252 14.95330659 16.25824253 17.48086252 18.4921875 20.00390625 C19.71918122 21.3902135 20.93400048 22.78733408 22.140625 24.19140625 C45.00782817 50.37330492 76.05415623 72.40136704 111.20703125 76.94140625 C138.8480509 78.46504487 162.61047754 72.32411715 185.76953125 56.94140625 C189.20703125 54.94140625 189.20703125 54.94140625 191.421875 55.31640625 C192.01097656 55.52265625 192.60007812 55.72890625 193.20703125 55.94140625 C193.53703125 57.26140625 193.86703125 58.58140625 194.20703125 59.94140625 C169.58861243 79.83365297 138.94699691 87.43976331 107.83105469 84.73486328 C78.47174084 81.17758499 53.76384589 64.07872239 32.20703125 44.94140625 C31.21703125 44.07386719 30.22703125 43.20632813 29.20703125 42.3125 C24.52146081 38.14259696 20.11012985 33.93053096 16.078125 29.125 C14.18173686 26.91188732 12.20412833 24.78832268 10.20800781 22.6652832 C-1.09835879 10.58942356 -1.09835879 10.58942356 -4.79296875 3.94140625 C-4.46296875 2.95140625 -4.13296875 1.96140625 -3.79296875 0.94140625 C-1.79296875 -0.05859375 -1.79296875 -0.05859375 0 0 Z " fill="#C0C0C0" transform="translate(855.79296875,247.05859375)"/>
<path d="M0 0 C1.23903076 0.00418945 2.47806152 0.00837891 3.75463867 0.01269531 C13.62843584 0.13344428 22.95673003 1.07019645 32.5625 3.3125 C33.84898437 3.60253906 35.13546875 3.89257812 36.4609375 4.19140625 C67.60762541 11.86569327 95.13201045 30.88712256 114.5625 56.3125 C115.70525391 57.78396484 115.70525391 57.78396484 116.87109375 59.28515625 C126.9703029 72.48395405 134.77497084 86.66923122 142.5625 101.3125 C143.18253906 102.47394531 143.80257813 103.63539063 144.44140625 104.83203125 C145.5625 107.3125 145.5625 107.3125 145.25 109.6875 C145.023125 110.22375 144.79625 110.76 144.5625 111.3125 C142.0875 111.8075 142.0875 111.8075 139.5625 112.3125 C139.30146484 111.81024902 139.04042969 111.30799805 138.77148438 110.79052734 C128.49864142 91.05893276 118.10798597 72.28644971 103.5625 55.3125 C102.83160156 54.45785156 102.10070313 53.60320312 101.34765625 52.72265625 C78.79855688 27.00320899 47.5603246 11.48194816 13.5625 8.3125 C10.7708309 8.21283625 7.98800416 8.2406789 5.1953125 8.28515625 C3.63541872 8.29778283 2.07552279 8.31014518 0.515625 8.32226562 C-1.91380734 8.34722216 -4.34312445 8.37541639 -6.77246094 8.40844727 C-9.13737754 8.43851779 -11.50214173 8.45636354 -13.8671875 8.47265625 C-14.9624324 8.49284569 -14.9624324 8.49284569 -16.07980347 8.51344299 C-17.86693554 8.52239186 -19.65396531 8.42618884 -21.4375 8.3125 C-22.0975 7.6525 -22.7575 6.9925 -23.4375 6.3125 C-23.0625 4.1875 -23.0625 4.1875 -22.4375 2.3125 C-14.88805452 0.29018323 -7.7966534 -0.03591224 0 0 Z " fill="#C0C0C0" transform="translate(970.4375,57.6875)"/>
<path d="M0 0 C3.69230769 0.69230769 3.69230769 0.69230769 5 2 C4.93349939 3.75319784 4.79414291 5.50371375 4.625 7.25 C4.52574219 8.343125 4.42648437 9.43625 4.32421875 10.5625 C4.21722656 11.696875 4.11023438 12.83125 4 14 C0.13597906 55.2162234 9.44918581 92.94894681 35 126 C35.64839844 126.84175781 36.29679688 127.68351562 36.96484375 128.55078125 C43.33584373 136.66276737 50.09527056 144.43499464 57.6875 151.4296875 C59.24538715 153.29358819 59.76543305 154.58591513 60 157 C59.34 157.66 58.68 158.32 58 159 C53.69211196 158.96247484 51.46769362 156.95603698 48.49682617 154.00146484 C47.96162354 153.44410645 47.4264209 152.88674805 46.875 152.3125 C46.30950439 151.7345166 45.74400879 151.1565332 45.16137695 150.56103516 C39.74103236 144.9182902 34.8916585 138.88847582 30.21386719 132.62402344 C29.09546876 131.12772691 27.95870858 129.64520149 26.8203125 128.1640625 C18.86517844 117.6088068 12.62322362 105.93730044 7 94 C6.56945312 93.09378906 6.13890625 92.18757813 5.6953125 91.25390625 C-5.73584142 65.65806159 -9.95339381 30.77090441 -1.9921875 3.5546875 C-1 1 -1 1 0 0 Z " fill="#C2C2C2" transform="translate(798,159)"/>
<path d="M0 0 C1.65274669 -0.00644261 3.30549228 -0.013172 4.95823669 -0.02017212 C8.41529985 -0.03210352 11.87226343 -0.03585749 15.3293457 -0.03466797 C19.71426417 -0.03446562 24.0985284 -0.06169849 28.48329258 -0.09621239 C31.89728095 -0.11868659 35.31111735 -0.12249922 38.72517204 -0.12144852 C40.33917418 -0.12377644 41.95318238 -0.1324371 43.56711006 -0.14811325 C57.91762711 -0.27439832 70.71689186 2.32850656 84.18359375 7.4609375 C84.95292236 7.74952637 85.72225098 8.03811523 86.51489258 8.33544922 C93.01914594 10.82964439 99.39468728 13.60243142 105.74609375 16.4609375 C106.65439941 16.86844238 107.56270508 17.27594727 108.49853516 17.69580078 C113.95814113 20.2044872 119.05440568 23.0092047 124.05859375 26.3359375 C123.72859375 27.9859375 123.39859375 29.6359375 123.05859375 31.3359375 C117.82340526 30.82617417 113.97714461 28.84444508 109.49609375 26.2734375 C100.43692115 21.27586265 91.03868724 17.61590672 81.30859375 14.14355469 C79.49809329 13.49369189 77.69829878 12.81404215 75.90234375 12.125 C61.64392326 6.88293365 45.24141305 3.59234217 30.05859375 3.3359375 C29.37587402 3.31692383 28.6931543 3.29791016 27.98974609 3.27832031 C-10.96443565 2.2529891 -52.53182924 13.62424175 -82.046875 40.25390625 C-83.94140625 41.3359375 -83.94140625 41.3359375 -86.6796875 41.01171875 C-87.79923828 40.67720703 -87.79923828 40.67720703 -88.94140625 40.3359375 C-88.83984375 38.140625 -88.83984375 38.140625 -87.94140625 35.3359375 C-85.83409314 33.4898125 -83.88250413 31.99189695 -81.56640625 30.4609375 C-80.93009277 30.02604004 -80.2937793 29.59114258 -79.63818359 29.14306641 C-77.74871233 27.85924959 -75.84618761 26.59687808 -73.94140625 25.3359375 C-73.01328125 24.70171875 -72.08515625 24.0675 -71.12890625 23.4140625 C-60.13256835 16.10552085 -48.29212122 10.69026198 -36.00390625 5.9609375 C-35.14039551 5.62715088 -34.27688477 5.29336426 -33.38720703 4.94946289 C-32.55044434 4.63614014 -31.71368164 4.32281738 -30.8515625 4 C-30.12074463 3.72623535 -29.38992676 3.4524707 -28.63696289 3.17041016 C-19.03137628 0.19677597 -9.95411449 0.00917712 0 0 Z " fill="#BBBBBB" transform="translate(936.94140625,-0.3359375)"/>
<path d="M0 0 C0 1.65 0 3.3 0 5 C-0.62753174 5.17539307 -1.25506348 5.35078613 -1.90161133 5.53149414 C-34.78359727 14.77702566 -71.38920176 26.27979343 -95.671875 51.75390625 C-97 53 -97 53 -99 53 C-99 53.66 -99 54.32 -99 55 C-100.09547887 56.1308169 -101.19909264 57.25424453 -102.328125 58.3515625 C-113.28095729 69.15085041 -121.33001596 81.74901131 -129 95 C-130.65 94.67 -132.3 94.34 -134 94 C-131.40645219 77.65190649 -116.15418477 62.4208761 -105 51 C-104.45617676 50.4313623 -103.91235352 49.86272461 -103.35205078 49.27685547 C-99.27016853 45.07752554 -94.9661721 41.46468513 -90.25 38 C-89.54464111 37.47873535 -88.83928223 36.9574707 -88.11254883 36.42041016 C-65.85386732 20.10160955 -41.37075307 9.71329974 -15 2 C-13.37191406 1.50306641 -13.37191406 1.50306641 -11.7109375 0.99609375 C-10.73382812 0.70863281 -9.75671875 0.42117187 -8.75 0.125 C-7.50476563 -0.24238281 -7.50476563 -0.24238281 -6.234375 -0.6171875 C-3.81480962 -1.03172842 -2.30840021 -0.7729964 0 0 Z " fill="#C3C3C3" transform="translate(952,31)"/>
<path d="M0 0 C24.91706773 -0.64440692 44.4116147 11.27792536 62.04345703 27.77392578 C66.11557049 31.67335217 69.85968404 35.78630835 73.46875 40.1171875 C74.12875 40.7771875 74.78875 41.4371875 75.46875 42.1171875 C75.59375 44.7421875 75.59375 44.7421875 75.46875 47.1171875 C74.14875 47.4471875 72.82875 47.7771875 71.46875 48.1171875 C71.06672363 47.67963135 70.66469727 47.2420752 70.25048828 46.79125977 C52.62778957 27.66271276 34.02853774 8.6104151 6.46875 7.1171875 C-18.29186278 7.16915101 -39.04877563 17.83461278 -56.59375 34.8046875 C-57.43035156 35.65417969 -58.26695312 36.50367188 -59.12890625 37.37890625 C-61.53125 39.1171875 -61.53125 39.1171875 -64.27734375 39.01171875 C-66.53125 38.1171875 -66.53125 38.1171875 -67.53125 36.1171875 C-54.12251036 18.37032621 -30.51143647 5.06299258 -8.95703125 0.58203125 C-5.9710723 0.2014153 -3.00426161 0.13908619 0 0 Z " fill="#BDBDBD" transform="translate(965.53125,106.8828125)"/>
<path d="M0 0 C0.598125 0.350625 1.19625 0.70125 1.8125 1.0625 C1.70703125 2.83203125 1.70703125 2.83203125 0.8125 5.0625 C-1.28542296 6.46011772 -3.26968166 7.60917971 -5.5 8.75 C-29.68963819 21.8701183 -48.1973409 41.64359799 -56.5625 68 C-57.12578289 70.01491502 -57.66976835 72.03540255 -58.1875 74.0625 C-58.40019531 74.87203125 -58.61289062 75.6815625 -58.83203125 76.515625 C-63.02719412 93.77917291 -61.28907316 111.80833608 -57.359375 128.9609375 C-57.1875 131.0625 -57.1875 131.0625 -59.1875 134.0625 C-60.8375 133.7325 -62.4875 133.4025 -64.1875 133.0625 C-69.86041799 100.35646815 -70.65708218 68.24446832 -50.9140625 39.66015625 C-48.74510633 36.72503297 -46.50655385 33.88000258 -44.1875 31.0625 C-43.61386719 30.33675781 -43.04023437 29.61101562 -42.44921875 28.86328125 C-36.26689807 21.3530158 -10.40677542 -4.46004661 0 0 Z " fill="#BBBBBB" transform="translate(915.1875,79.9375)"/>
<path d="M0 0 C1.89904091 1.89904091 1.16846627 5.18552315 1.19091797 7.74047852 C1.15352599 38.61290043 -6.85187356 70.38170305 -28 94 C-30.75 94.3125 -30.75 94.3125 -33 94 C-33.75 91.8125 -33.75 91.8125 -34 89 C-32.71340953 87.29699074 -31.37130486 85.63556673 -30 84 C-12.1516224 57.75238588 -7.05459651 31.28207627 -6 0 C-3.49749232 -1.25125384 -2.59701335 -0.83774624 0 0 Z " fill="#C3C3C3" transform="translate(1117,213)"/>
<path d="M0 0 C1.65 0 3.3 0 5 0 C10.25410506 11.62970039 13.76973974 24.20410825 14 37 C14.03867188 38.22976562 14.07734375 39.45953125 14.1171875 40.7265625 C14.50999543 58.00798792 12.91428602 81.53983905 2 96 C-0.00341797 96.78125 -0.00341797 96.78125 -2 97 C-2.66 96.67 -3.32 96.34 -4 96 C-3.44177845 91.10625771 -2.38562688 86.90613559 -0.625 82.3125 C7.933269 58.98750673 8.52497172 34.35175935 0.58911133 10.72094727 C-0.6960389 6.76616587 -1.28707359 4.00942925 0 0 Z " fill="#C2C2C2" transform="translate(1070,176)"/>
<path d="M0 0 C0 1.65 0 3.3 0 5 C-0.62753174 5.17539307 -1.25506348 5.35078613 -1.90161133 5.53149414 C-15.12869365 9.25059453 -28.12475465 13.26005256 -40.9453125 18.20898438 C-44.28817 19.49592096 -47.64482319 20.74558705 -51 22 C-51 21.34 -51 20.68 -51 20 C-49.68 19.34 -48.36 18.68 -47 18 C-47 17.01 -47 16.02 -47 15 C-47 14.34 -47 13.68 -47 13 C-35.56175671 8.50782049 -24.13868634 4.03785032 -12.25 0.875 C-11.47164795 0.66335205 -10.6932959 0.4517041 -9.89135742 0.23364258 C-6.1964586 -0.70172788 -3.63727992 -1.11568691 0 0 Z " fill="#B8B8B8" transform="translate(952,31)"/>
<path d="M0 0 C2.42090621 3.63135931 2.59837914 6.77747933 3 11 C3.62544838 17.06015723 4.46542878 22.95045263 5.828125 28.8984375 C6 31 6 31 4 34 C2.35 33.67 0.7 33.34 -1 33 C-2.41980245 25.90098775 -2.40684698 20.15109394 -0.4453125 13.23046875 C0.42456703 8.8734406 0.14631339 4.42191584 0 0 Z " fill="#B2B2B2" transform="translate(852,180)"/>
<path d="M0 0 C0.33 0 0.66 0 1 0 C2.96230295 29.25933859 2.96230295 29.25933859 -1 39 C-1.33 39 -1.66 39 -2 39 C-2.04942365 33.927993 -2.08573068 28.85612606 -2.10986328 23.78393555 C-2.11992326 22.05832477 -2.13357276 20.33273105 -2.15087891 18.60717773 C-2.17512754 16.1273986 -2.18648301 13.64784477 -2.1953125 11.16796875 C-2.20563507 10.39599655 -2.21595764 9.62402435 -2.22659302 8.82865906 C-2.22739422 5.00718524 -2.17242595 3.25863893 0 0 Z " fill="#D1D1D1" transform="translate(851,163)"/>
<path d="M0 0 C0 0.66 0 1.32 0 2 C-6.61711923 3.40363135 -13.04154703 4.1537465 -19.8125 4.1875 C-21.77123047 4.20876953 -21.77123047 4.20876953 -23.76953125 4.23046875 C-27 4 -27 4 -29 2 C-28.13834229 1.96241577 -28.13834229 1.96241577 -27.25927734 1.92407227 C-24.63100279 1.80730125 -22.00301605 1.68494581 -19.375 1.5625 C-18.47136719 1.52318359 -17.56773437 1.48386719 -16.63671875 1.44335938 C-11.0692907 1.17921133 -5.53323448 0 0 0 Z " fill="#7B7B7B" transform="translate(998,323)"/>
<path d="M0 0 C1.17539996 0.92652701 2.34010577 1.86663387 3.5 2.8125 C4.1496875 3.33457031 4.799375 3.85664063 5.46875 4.39453125 C7 6 7 6 7 9 C1.93001981 8.34580901 -2.41990777 6.1453591 -7 4 C-3.06329512 2.68776504 -0.87511856 3.75703744 3 5 C2.505 4.54625 2.01 4.0925 1.5 3.625 C0 2 0 2 0 0 Z " fill="#959595" transform="translate(1008,247)"/>
<path d="M0 0 C0.8971875 0.309375 0.8971875 0.309375 1.8125 0.625 C0.8125 3.625 0.8125 3.625 -2.1875 5.625 C-2.1875 6.285 -2.1875 6.945 -2.1875 7.625 C-3.8375 8.285 -5.4875 8.945 -7.1875 9.625 C-6.8575 8.861875 -6.5275 8.09875 -6.1875 7.3125 C-5.01313314 4.63430865 -5.01313314 4.63430865 -5.1875 1.625 C-2.1875 -0.375 -2.1875 -0.375 0 0 Z " fill="#9F9F9F" transform="translate(1015.1875,173.375)"/>
<path d="M0 0 C0.66 0.33 1.32 0.66 2 1 C1.50371094 1.4846875 1.00742187 1.969375 0.49609375 2.46875 C-4.23054696 7.132608 -8.6966545 11.94356903 -13 17 C-13 12.71066403 -10.43797802 10.87354581 -7.625 7.9375 C-7.11710938 7.39544922 -6.60921875 6.85339844 -6.0859375 6.29492188 C-4.08646546 4.1665365 -2.06495391 2.06495391 0 0 Z " fill="#9B9B9B" transform="translate(849,80)"/>
<path d="M0 0 C5.52677733 -0.19392201 9.75614911 0.2520497 15 2 C15 2.99 15 3.98 15 5 C14.34 5 13.68 5 13 5 C13 4.34 13 3.68 13 3 C6.07 2.505 6.07 2.505 -1 2 C-0.67 1.34 -0.34 0.68 0 0 Z " fill="#8B8B8B" transform="translate(1008,205)"/>
<path d="M0 0 C0.66 0.33 1.32 0.66 2 1 C-2.62048376 4.72619658 -7.30982806 8.36230673 -12 12 C-12.66 11.67 -13.32 11.34 -14 11 C-9.52692892 6.95834187 -5.11723176 3.19826985 0 0 Z " fill="#AEAEAE" transform="translate(870,63)"/>
<path d="M0 0 C0.66 0.33 1.32 0.66 2 1 C0.54540569 2.64913882 -0.91379257 4.29421782 -2.375 5.9375 C-3.18710937 6.85402344 -3.99921875 7.77054688 -4.8359375 8.71484375 C-7 11 -7 11 -9 12 C-7.55575365 8.76138697 -5.74227753 6.38030837 -3.375 3.75 C-2.74335937 3.04359375 -2.11171875 2.3371875 -1.4609375 1.609375 C-0.97882812 1.07828125 -0.49671875 0.5471875 0 0 Z " fill="#B1B1B1" transform="translate(928,227)"/>
<path d="M0 0 C0.66 0.33 1.32 0.66 2 1 C-0.75 6.75 -0.75 6.75 -3 9 C-3.69748583 10.31747324 -4.36959957 11.64914193 -5 13 C-4.54996653 7.37458159 -3.31558515 4.38512875 0 0 Z " fill="#B3B3B3" transform="translate(219,681)"/>
<path d="M0 0 C0.66 0.33 1.32 0.66 2 1 C-0.95668756 5.47726973 -3.05848696 8.59983652 -8 11 C-6.63629701 8.00779732 -5.05091917 5.70973471 -2.875 3.25 C-2.33617187 2.63640625 -1.79734375 2.0228125 -1.2421875 1.390625 C-0.62730469 0.70226562 -0.62730469 0.70226562 0 0 Z " fill="#B0B0B0" transform="translate(916,241)"/>
<path d="M0 0 C3.63 0.66 7.26 1.32 11 2 C11 2.66 11 3.32 11 4 C7.18652885 5.27115705 5.64026964 4.54905091 2 3 C1.34 2.01 0.68 1.02 0 0 Z " fill="#ACACAC" transform="translate(294,724)"/>
<path d="M0 0 C4.9723422 1.49170266 9.41845739 3.60457417 14 6 C10.38884694 7.20371769 9.75890242 6.71183147 6.4375 5.125 C5.65246094 4.75632812 4.86742187 4.38765625 4.05859375 4.0078125 C2.70296989 3.34414845 1.35001216 2.67500608 0 2 C0 1.34 0 0.68 0 0 Z " fill="#A3A3A3" transform="translate(884,382)"/>
<path d="M0 0 C0.66 0.33 1.32 0.66 2 1 C0.15083921 5.06815373 -1.66442368 8.0094833 -5 11 C-4.46884894 6.48521602 -2.63379708 3.65333143 0 0 Z " fill="#B6B6B6" transform="translate(247,636)"/>
<path d="M0 0 C0 3.51716303 -0.82445585 4.37121748 -3 7 C-2.01 6.67 -1.02 6.34 0 6 C0 6.66 0 7.32 0 8 C-1.65 8.33 -3.3 8.66 -5 9 C-4.5206753 4.68607774 -3.2542015 2.83430453 0 0 Z " fill="#A2A2A2" transform="translate(906,253)"/>
<path d="M0 0 C0 0.66 0 1.32 0 2 C-1.65 2.66 -3.3 3.32 -5 4 C-5 4.66 -5 5.32 -5 6 C-6.65 6 -8.3 6 -10 6 C-9.67 5.01 -9.34 4.02 -9 3 C-2.88888889 0 -2.88888889 0 0 0 Z " fill="#9B9B9B" transform="translate(902,217)"/>
<path d="M0 0 C0 0.66 0 1.32 0 2 C-3.73437848 2.87867729 -7.16774573 3.08912219 -11 3 C-7.88866897 -0.11133103 -4.26881718 0 0 0 Z " fill="#9B9B9B" transform="translate(998,323)"/>
<path d="M0 0 C0.66 0.99 1.32 1.98 2 3 C1.01 4.98 0.02 6.96 -1 9 C-1.66 9 -2.32 9 -3 9 C-2.25 2.25 -2.25 2.25 0 0 Z " fill="#B1B1B1" transform="translate(798,159)"/>
<path d="M0 0 C3.28330144 2.92348758 3.95866933 5.75457495 5 10 C4.01 9.67 3.02 9.34 2 9 C1.26953125 6.93359375 1.26953125 6.93359375 0.8125 4.4375 C0.65394531 3.61121094 0.49539063 2.78492188 0.33203125 1.93359375 C0.16767578 0.97646484 0.16767578 0.97646484 0 0 Z " fill="#B0B0B0" transform="translate(1067,576)"/>
<path d="M0 0 C1.6498275 0.42218816 3.29483665 0.86324425 4.9375 1.3125 C6.31228516 1.67794922 6.31228516 1.67794922 7.71484375 2.05078125 C8.46894531 2.36402344 9.22304688 2.67726563 10 3 C10.33 3.99 10.66 4.98 11 6 C6.95743617 4.77782954 3.50711041 3.37245704 0 1 C0 0.67 0 0.34 0 0 Z " fill="#A1A1A1" transform="translate(903,391)"/>
<path d="M0 0 C0.66 0.33 1.32 0.66 2 1 C0.515 4.96 0.515 4.96 -1 9 C-1.66 9 -2.32 9 -3 9 C-2.44271087 5.65626525 -1.64826111 2.96687001 0 0 Z " fill="#B8B8B8" transform="translate(156,674)"/>
<path d="M0 0 C0.66 0.33 1.32 0.66 2 1 C-0.97 4.96 -0.97 4.96 -4 9 C-4.33 8.01 -4.66 7.02 -5 6 C-3.59554165 3.7363436 -1.8032087 1.9791315 0 0 Z " fill="#AAAAAA" transform="translate(172,767)"/>
<path d="M0 0 C0.66 0 1.32 0 2 0 C2.66 2.97 3.32 5.94 4 9 C3.01 8.67 2.02 8.34 1 8 C0.67 5.36 0.34 2.72 0 0 Z " fill="#999999" transform="translate(1039,655)"/>
<path d="M0 0 C0.66 0 1.32 0 2 0 C0.66511872 3.59391114 -0.96022723 6.75490696 -3 10 C-3.33 9.34 -3.66 8.68 -4 8 C-3.22265625 6.0546875 -3.22265625 6.0546875 -2.0625 3.875 C-1.49208984 2.78832031 -1.49208984 2.78832031 -0.91015625 1.6796875 C-0.60980469 1.12539063 -0.30945313 0.57109375 0 0 Z " fill="#ABABAB" transform="translate(655,302)"/>
<path d="M0 0 C1.98 0.99 1.98 0.99 4 2 C4 2.99 4 3.98 4 5 C4.99 6.485 4.99 6.485 6 8 C2.83884224 6.63016497 2.0072908 6.0109362 0 3 C0 2.01 0 1.02 0 0 Z " fill="#A9A9A9" transform="translate(900,163)"/>
</svg>
